<svg width="201" height="49" viewBox="0 0 201 49" fill="none" xmlns="http://www.w3.org/2000/svg">
<path d="M62.7435 13.6694C61.8905 13.6694 61.1588 13.4143 60.5523 12.904C59.9458 12.3938 59.6426 11.6722 59.6426 10.7393C59.6426 9.89393 59.9537 9.19709 60.5758 8.65067C61.1979 8.10424 61.9198 7.83008 62.7435 7.83008C63.5671 7.83008 64.2421 8.07759 64.8564 8.57451C65.4707 9.06953 65.7779 9.79112 65.7779 10.7393C65.7779 11.6874 65.4786 12.3766 64.8799 12.8926C64.2812 13.4105 63.5691 13.6694 62.7454 13.6694H62.7435ZM65.7759 19.8362V37.0895C65.7759 38.2852 65.4844 39.1896 64.8995 39.8007C64.3145 40.4119 63.573 40.7184 62.675 40.7184C61.777 40.7184 61.0453 40.4043 60.4838 39.7779C59.9223 39.1515 59.6406 38.2547 59.6406 37.0876V20.0095C59.6406 18.829 59.9223 17.9399 60.4838 17.3421C61.0453 16.7442 61.7751 16.4453 62.675 16.4453C63.575 16.4453 64.3145 16.7442 64.8995 17.3421C65.4844 17.9399 65.7759 18.77 65.7759 19.8343V19.8362Z" fill="#231F20"/>
<path d="M85.1812 16.4481C86.7992 16.4481 88.245 16.7908 89.5186 17.4763C90.7922 18.1617 91.743 19.1308 92.373 20.3835C92.778 21.1127 93.0401 21.8991 93.1595 22.7444C93.2788 23.5897 93.3394 24.6693 93.3394 25.9811V37.0905C93.3394 38.2861 93.0577 39.1905 92.4962 39.8016C91.9347 40.4128 91.2031 40.7193 90.3051 40.7193C89.4071 40.7193 88.6499 40.4052 88.0806 39.7788C87.5113 39.1524 87.2276 38.2557 87.2276 37.0885V27.1387C87.2276 25.17 86.9479 23.6659 86.3844 22.6226C85.8229 21.5811 84.7019 21.0594 83.0253 21.0594H78.6859C78.0912 21.0594 77.6099 21.5278 77.6099 22.1066V37.0885C77.6099 38.2994 77.3204 39.2057 76.7452 39.8112C76.168 40.4166 75.4226 40.7193 74.509 40.7193C73.5954 40.7193 72.8989 40.4052 72.3296 39.7788C71.7602 39.1524 71.4766 38.2557 71.4766 37.0885V21.543C71.4766 18.7271 73.8223 16.4443 76.7158 16.4443H85.1832L85.1812 16.4481Z" fill="#231F20"/>
<path d="M109.807 40.6708C103.467 40.6708 101.496 38.3918 100.583 37.2685C99.6692 36.1452 98.9766 34.8277 98.5031 33.3102C98.0316 31.7947 97.7949 30.1535 97.7949 28.3905C97.7949 24.6588 98.7301 21.7496 100.604 19.6648C102.477 17.5801 104.942 16.5386 107.998 16.5386C109.766 16.5386 111.257 16.8337 112.47 17.4239C113.683 18.0141 114.867 18.9223 116.021 20.1465V11.5484C116.021 10.3242 116.271 9.39701 116.774 8.77062C117.275 8.14423 117.991 7.83008 118.92 7.83008C119.85 7.83008 120.564 8.11757 121.066 8.69446C121.567 9.26944 121.82 10.1205 121.82 11.2419V31.9984C121.82 36.7887 117.831 40.6708 112.908 40.6708H109.809H109.807ZM103.954 28.5885C103.954 30.2069 104.212 31.5853 104.728 32.7219C105.245 33.8586 105.953 34.7153 106.851 35.2922C107.751 35.8672 108.757 36.1166 110.672 36.1166H112.947C114.458 36.1166 115.684 34.9248 115.684 33.453V28.5885C115.684 26.9987 115.418 25.6336 114.886 24.4875C114.354 23.3432 113.636 22.4693 112.728 21.8639C111.822 21.2584 110.829 20.9557 109.751 20.9557C108.673 20.9557 107.622 21.266 106.74 21.8848C105.855 22.5055 105.171 23.3946 104.683 24.5522C104.196 25.7117 103.954 27.0559 103.954 28.5866V28.5885Z" fill="#231F20"/>
<path d="M147.417 40.6708C142.495 40.6708 138.506 36.7887 138.506 31.9984V11.2419C138.506 10.1205 138.756 9.26944 139.259 8.69446C139.762 8.11947 140.476 7.83008 141.405 7.83008C142.335 7.83008 143.049 8.14423 143.551 8.77062C144.054 9.39701 144.305 10.3223 144.305 11.5484V20.1465C145.459 18.9223 146.643 18.0141 147.856 17.4239C149.069 16.8337 150.559 16.5386 152.328 16.5386C155.384 16.5386 157.849 17.582 159.721 19.6648C161.593 21.7496 162.531 24.6588 162.531 28.3905C162.531 30.1555 162.296 31.7947 161.822 33.3102C161.349 34.8258 160.658 36.1452 159.743 37.2685C158.829 38.3918 156.859 40.6708 150.518 40.6708H147.419H147.417ZM155.64 24.5522C155.153 23.3927 154.468 22.5036 153.584 21.8848C152.7 21.2641 151.696 20.9557 150.573 20.9557C149.495 20.9557 148.503 21.2584 147.595 21.8639C146.69 22.4693 145.97 23.3432 145.437 24.4875C144.905 25.6317 144.639 26.9987 144.639 28.5885V33.453C144.639 34.9229 145.864 36.1166 147.376 36.1166H149.652C151.567 36.1166 152.572 35.8672 153.472 35.2922C154.37 34.7172 155.079 33.8586 155.595 32.7219C156.112 31.5853 156.37 30.2069 156.37 28.5885C156.37 27.0578 156.127 25.7136 155.64 24.5541V24.5522Z" fill="#231F20"/>
<path d="M130.394 13.6694C129.541 13.6694 128.809 13.4143 128.203 12.904C127.596 12.3938 127.293 11.6722 127.293 10.7393C127.293 9.89393 127.604 9.19709 128.226 8.65067C128.848 8.10424 129.57 7.83008 130.394 7.83008C131.218 7.83008 131.892 8.07759 132.507 8.57451C133.121 9.06953 133.428 9.79112 133.428 10.7393C133.428 11.6874 133.129 12.3766 132.53 12.8926C131.932 13.4105 131.219 13.6694 130.396 13.6694H130.394ZM133.426 19.8362V37.0895C133.426 38.2852 133.135 39.1896 132.55 39.8007C131.965 40.4119 131.223 40.7184 130.325 40.7184C129.427 40.7184 128.696 40.4043 128.134 39.7779C127.573 39.1515 127.291 38.2547 127.291 37.0876V20.0095C127.291 18.829 127.573 17.9399 128.134 17.3421C128.696 16.7442 129.425 16.4453 130.325 16.4453C131.225 16.4453 131.965 16.7442 132.55 17.3421C133.135 17.9399 133.426 18.77 133.426 19.8343V19.8362Z" fill="#231F20"/>
<path d="M170.222 13.6694C169.369 13.6694 168.637 13.4143 168.031 12.904C167.424 12.3938 167.121 11.6722 167.121 10.7393C167.121 9.89393 167.432 9.19709 168.054 8.65067C168.676 8.10424 169.398 7.83008 170.222 7.83008C171.046 7.83008 171.721 8.07759 172.335 8.57451C172.949 9.06953 173.256 9.79112 173.256 10.7393C173.256 11.6874 172.957 12.3766 172.358 12.8926C171.76 13.4105 171.048 13.6694 170.224 13.6694H170.222ZM173.254 19.8362V37.0895C173.254 38.2852 172.963 39.1896 172.378 39.8007C171.793 40.4119 171.052 40.7184 170.154 40.7184C169.256 40.7184 168.524 40.4043 167.962 39.7779C167.401 39.1515 167.119 38.2547 167.119 37.0876V20.0095C167.119 18.829 167.401 17.9399 167.962 17.3421C168.524 16.7442 169.254 16.4453 170.154 16.4453C171.053 16.4453 171.793 16.7442 172.378 17.3421C172.963 17.9399 173.254 18.77 173.254 19.8343V19.8362Z" fill="#231F20"/>
<path d="M197.265 23.2927L186.029 35.5178H198.051C199.026 35.5178 199.759 35.7405 200.252 36.1841C200.747 36.6297 200.994 37.2008 200.994 37.9015C200.994 38.6021 200.749 39.1181 200.264 39.5427C199.777 39.9653 199.039 40.1767 198.051 40.1767H181.424C180.256 40.1767 179.383 39.9292 178.806 39.4322C178.229 38.9372 177.941 38.2594 177.941 37.3988C177.941 36.8886 178.143 36.3745 178.548 35.8567C178.953 35.3388 179.792 34.3887 181.064 33.0027C182.412 31.5443 183.637 30.2249 184.738 29.0444C185.839 27.864 186.861 26.7597 187.806 25.7316C188.749 24.7035 189.531 23.8334 190.153 23.1175C190.775 22.4036 191.272 21.7905 191.648 21.2803H182.525C181.267 21.2803 180.315 21.1717 179.671 20.9528C179.027 20.7338 178.704 20.1588 178.704 19.2259C178.704 18.5405 178.947 17.9941 179.434 17.5847C179.921 17.1773 180.614 16.9717 181.512 16.9717H195.6C196.903 16.9717 197.903 17.1583 198.599 17.5295C199.296 17.9008 199.644 18.5672 199.644 19.5305C199.644 19.8504 199.577 20.1836 199.442 20.5263C199.307 20.869 199.159 21.1489 198.992 21.3678C198.828 21.5868 198.603 21.8533 198.317 22.1656C198.034 22.4797 197.68 22.8548 197.261 23.2908L197.265 23.2927Z" fill="#231F20"/>
<path d="M3.58463 27.7455C2.66708 27.7455 1.74952 27.4047 1.04912 26.7231C-0.349708 25.3618 -0.349708 23.1513 1.04912 21.79L13.8225 9.35932C15.2233 7.99611 17.4908 7.99611 18.8916 9.35932C20.2904 10.7206 20.2904 12.9311 18.8916 14.2924L6.11818 26.7231C5.41779 27.4047 4.50023 27.7455 3.58267 27.7455H3.58463Z" fill="#939598"/>
<path d="M25.2233 48.5483C23.0771 48.5483 21.3359 46.8538 21.3359 44.7652V15.0526C21.3359 12.964 23.0771 11.2695 25.2233 11.2695C27.3695 11.2695 29.1107 12.964 29.1107 15.0526V44.7652C29.1107 46.8538 27.3695 48.5483 25.2233 48.5483Z" fill="#EE3124"/>
<path d="M25.224 8.38106C27.6022 8.38106 29.5301 6.5049 29.5301 4.19053C29.5301 1.87616 27.6022 0 25.224 0C22.8459 0 20.918 1.87616 20.918 4.19053C20.918 6.5049 22.8459 8.38106 25.224 8.38106Z" fill="#EE3124"/>
<path d="M44.3224 21.6572C45.0228 20.9756 45.9404 20.6348 46.856 20.6348H29.1094V27.744H38.0658L44.3224 21.6553V21.6572Z" fill="#6D6E71"/>
<path d="M12.3761 20.6348L6.11948 26.7235C5.42104 27.4032 4.50544 27.744 3.58984 27.7459H21.3384V20.6367H12.3761V20.6348Z" fill="#6D6E71"/>
<path d="M49.3913 21.6572C47.9905 20.294 45.723 20.294 44.3222 21.6572L29.1111 36.4602V44.7651C29.1111 45.7589 28.7179 46.6614 28.0742 47.3373L49.3932 26.5902C50.7921 25.2289 50.7921 23.0185 49.3932 21.6572H49.3913Z" fill="#939598"/>
</svg>
